PathFileType	4	(X/Y/Z)	pose_F01_0-96.trc
DataRate	CameraRate	NumFrames	NumMarkers	Units	OrigDataRate	OrigDataStartFrame	OrigNumFrames
30	30	8	21	m	30	60	96
Frame#	Time	CHip			RHip			RKnee			RAnkle			RBigToe			RSmallToe			RHeel			LHip			LKnee			LAnkle			LBigToe			LSmallToe			LHeel			Neck			Nose			RShoulder			RElbow			RWrist			LShoulder			LElbow			LWrist			
		X1	Y1	Z1	X2	Y2	Z2	X3	Y3	Z3	X4	Y4	Z4	X5	Y5	Z5	X6	Y6	Z6	X7	Y7	Z7	X8	Y8	Z8	X9	Y9	Z9	X10	Y10	Z10	X11	Y11	Z11	X12	Y12	Z12	X13	Y13	Z13	X14	Y14	Z14	X15	Y15	Z15	X16	Y16	Z16	X17	Y17	Z17	X18	Y18	Z18	X19	Y19	Z19	X20	Y20	Z20	X21	Y21	Z21	
60	2.0	-0.25857340342922225	1.8868629101824776	-0.6866879280777078	-0.2662371075060369	1.8875888947588984	-0.6258125444567313	-0.25244137542371503	1.7370687182743925	-0.5608014088094992	-0.2480758185632506	1.5740889868941383	-0.39554576905883676	-0.24715778361104926	1.5381716399178564	-0.38834535687175187	-0.25425137651361124	1.5468858264141472	-0.37168822557765696	-0.4892345764645198	1.554664187874765	-1.0947915720464407	-1.053868477268225	1.8008948579968989	0.04969947474845954	-0.23576388674505167	1.7144543349078987	-0.6668848788887034													-0.2674451473228475	2.056043614425012	-0.7625819776379662	-0.23032030905023715	2.117722786617905	-0.7603907961841697	-0.2810207847929883	2.067628355873032	-0.6875450257649891	-0.30942855964629074	1.9922110729957625	-0.6334682867903965	-1.4438072424190507	1.8607973467465773	0.6340654373037957	-0.24805480391275528	2.0490914440794636	-0.8447753506108084	-0.24750434862947232	1.9521101051765377	-0.8341522702200018	-0.8732198796877368	1.7949895792572568	-0.19897279215752414
61	2.033333333333333	-0.25953882434574344	1.8831073018291644	-0.6893421812146246	-0.2680527783632347	1.8866263964656669	-0.6319229231010026	-0.26121237059858615	1.740084609286675	-0.577123621670547	-0.2480758185632506	1.5740889868941383	-0.39554576905883676	-0.24715778361104926	1.5381716399178564	-0.38834535687175187	-0.25425137651361124	1.5468858264141472	-0.37168822557765696	-0.4892345764645198	1.554664187874765	-1.0947915720464407	-1.0402410275715723	1.8004199927361098	0.029842986117057203	-0.23576388674505167	1.7144543349078987	-0.6668848788887034													-0.2704514352860728	2.0549239227354903	-0.7628578812594164	-0.23650083869169708	2.1165469568151143	-0.7612719048503108	-0.2832116217917979	2.0661448215603686	-0.6849109694897542	-0.3076869626315919	1.988057920260038	-0.6353847110883456	-1.430859627514395	1.8596730949627007	0.6154757560155841	-0.25119773448416977	2.048989047211485	-0.8455214690583819	-0.25301472468428354	1.9547060053973606	-0.832311181634274	-0.8795140604095468	1.7950339139203455	-0.18835391911641305
62	2.066666666666667	-0.26375856012025467	1.8840484031929243	-0.6936703873846053	-0.2755119478467428	1.8843481242421147	-0.6372291249935619	-0.2699833657734573	1.743100500298958	-0.5934458345315946	-0.2480758185632506	1.5740889868941383	-0.39554576905883676	-0.24715778361104926	1.5381716399178564	-0.38834535687175187	-0.25425137651361124	1.5468858264141472	-0.37168822557765696	-0.4892345764645198	1.554664187874765	-1.0947915720464407	-1.0233599036907233	1.803444518570064	0.0010330344019471693	-0.2481568557044894	1.7329196263421809	-0.7139071570672496													-0.2707240992648394	2.053783958412789	-0.7628095606598941	-0.24184292575508679	2.115405189861562	-0.7601201909237159	-0.2874187576331962	2.0648158639930245	-0.6801176863477307	-0.3092039673755902	1.9838084239672966	-0.630206095147936	-1.3999743723038536	1.8616606160826352	0.564756484798368	-0.25381391635311357	2.046894566282408	-0.8434379186001492	-0.2696299482956575	1.9533562275650809	-0.8282937180212996	-0.9083323335329961	1.8070541439092107	-0.1559914151062413
63	2.1	-0.2682804145866412	1.8815799225490972	-0.6975484145368266	-0.286041393092707	1.881452737306118	-0.6343072638987013	-0.2787543609483284	1.7461163913112405	-0.6097680473926423	-0.2480758185632506	1.5740889868941383	-0.39554576905883676	-0.24715778361104926	1.5381716399178564	-0.38834535687175187	-0.25425137651361124	1.5468858264141472	-0.37168822557765696	-0.4892345764645198	1.554664187874765	-1.0947915720464407	-1.019972374422373	1.8046522616624383	-0.007761032296637317	-0.2481568557044894	1.7329196263421809	-0.7139071570672496													-0.27292171752701416	2.0525238536340504	-0.760358092395067	-0.24285161405687936	2.1143287133617124	-0.7623327882287294	-0.2886508128753833	2.063638935355782	-0.6746233093677917	-0.30600637282310506	1.9824617639935025	-0.6202197581022371	-1.3709458361154785	1.8588358418614346	0.5217822141434488	-0.2615733935541711	2.0469730421742347	-0.8397874864267184	-0.2743231754589216	1.9564376137336559	-0.8351284394489326	-0.9698912502048278	1.8222673974999812	-0.06854665394615403
64	2.1333333333333333	-0.27848459078180254	1.875076485592364	-0.7059497471926406	-0.2923875063178957	1.8775522100135482	-0.6470873036461251	-0.2875253561231995	1.7491322823235234	-0.62609026025369	-0.2480758185632506	1.5740889868941383	-0.39554576905883676	-0.24715778361104926	1.5381716399178564	-0.38834535687175187	-0.25425137651361124	1.5468858264141472	-0.37168822557765696	-0.4892345764645198	1.554664187874765	-1.0947915720464407	-0.9607177407140625	1.7951650064095686	-0.09712899622939859	-0.2481568557044894	1.7329196263421809	-0.7139071570672496													-0.27619517774060665	2.051189512034909	-0.7611940255814162	-0.24521994110516335	2.110353385609049	-0.7594809113218329	-0.2908500389853784	2.0613059809474827	-0.6721009795584546	-0.3030265021342496	1.9828326327758592	-0.6110856676765838	-1.3234386509728437	1.8540142827317705	0.44805905942818547	-0.2700430598483	2.0472845291305917	-0.8391164922921309	-0.27894870243611847	1.9571489594747997	-0.8425796038267872	-0.9980381973247698	1.8613478541151365	-0.05131712562731848
65	2.1666666666666665	-1.0862348695630062	1.804556404896532	0.08211789951952952	-0.29672433219255645	1.8849189256783498	-0.6520446887372334	-0.2962963512980707	1.7521481733358062	-0.6424124731147376	-0.2480758185632506	1.5740889868941383	-0.39554576905883676	-0.24715778361104926	1.5381716399178564	-0.38834535687175187	-0.25425137651361124	1.5468858264141472	-0.37168822557765696	-0.4892345764645198	1.554664187874765	-1.0947915720464407	-0.965177441921274	1.8039080533124592	-0.09367125630159492	-0.2481568557044894	1.7329196263421809	-0.7139071570672496													-0.28370062835242005	2.052066509189051	-0.7575222537594104	-0.24920476529790583	2.1078690684625596	-0.762707467212328	-0.29181205813824546	2.0600037956618404	-0.6745393419702408	-0.29805042789423947	1.983643091442748	-0.6126138303063016	-0.25078937524368816	1.9580061638240702	-0.6650478708948824	-0.27315705076876484	2.0488858795273224	-0.8396878788406213	-0.2725793059820376	1.9509041453663336	-0.842057161256435	-1.1137988083500079	1.8798373912562927	0.12864237594702482
66	2.2	-1.0616506918106	1.802339383510045	0.04297947079182015	-0.29767786431136434	1.8838649046355491	-0.6549459424632882	-0.3050673464729418	1.7551640643480888	-0.6587346859757853	-0.2480758185632506	1.5740889868941383	-0.39554576905883676	-0.24715778361104926	1.5381716399178564	-0.38834535687175187	-0.25425137651361124	1.5468858264141472	-0.37168822557765696	-0.4892345764645198	1.554664187874765	-1.0947915720464407	-0.9425892808124464	1.8031817016160874	-0.1258736050081756	-0.2481568557044894	1.7329196263421809	-0.7139071570672496													-0.2869042757123314	2.0498883338922265	-0.7581171266816618	-0.2548478104168605	2.1017193391711695	-0.7609389950990466	-0.2929410830368231	2.05738807804613	-0.6771670866350459	-1.3750309236845364	1.8750882362670154	0.5041005589685097	-0.23382675678291087	1.9777924916468494	-0.6786152981292084	-0.2750982412960284	2.0463365721310263	-0.8456430523294046	-0.2625394420500528	1.9547240295134993	-0.8445294149556374	-0.24819450139719654	1.980845707480401	-0.7571169540242015
67	2.2333333333333334	-1.0516157711438463	1.804638014789976	0.023784538677977984	-0.30121253302493856	1.8840727303069444	-0.664358068695916	-0.31383834164781294	1.7581799553603716	-0.675056898836833	-0.2480758185632506	1.5740889868941383	-0.39554576905883676	-0.24715778361104926	1.5381716399178564	-0.38834535687175187	-0.25425137651361124	1.5468858264141472	-0.37168822557765696	-0.4892345764645198	1.554664187874765	-1.0947915720464407	-0.9391107896652453	1.8047516177746805	-0.133205287203584	-0.2481568557044894	1.7329196263421809	-0.7139071570672496													-0.2896798225698764	2.0513549861990956	-0.7673856722327325	-0.2578412756528099	2.102845942407513	-0.7616038148616804	-0.2967216163470129	2.0577362927826655	-0.6892217756389987	-0.2756565159845838	1.969728336855906	-0.6288093907156997	-0.23446865331622133	1.996821067649891	-0.6953871313357964	-0.2766652143655509	2.048911643045997	-0.8512816649162276	-0.25224611735447977	1.9689231562833576	-0.8421752737643011	-0.2658598157089411	2.003100455264523	-0.7349162626656576
